<svg width="61" height="58" viewBox="0 0 61 58" xmlns="http://www.w3.org/2000/svg"><title>logo-with-text</title><g fill="none" fill-rule="evenodd"><path d="M2.99 48.88v8.289H.858v-8.29h2.13zm4.934 6.464h.49c.37 0 .699-.059.989-.176a2.11 2.11 0 0 0 .733-.484c.2-.205.352-.449.457-.73.105-.283.158-.593.158-.93 0-.33-.055-.637-.163-.923a2.13 2.13 0 0 0-.462-.737 2.11 2.11 0 0 0-.734-.484 2.589 2.589 0 0 0-.978-.175h-.49v4.639zm-2.13-6.464h3.152c.558 0 1.082.113 1.57.34a4.211 4.211 0 0 1 2.147 2.226c.211.503.316 1.029.316 1.578a4.08 4.08 0 0 1-.31 1.567 4.2 4.2 0 0 1-2.141 2.237 3.717 3.717 0 0 1-1.582.341H5.794v-8.29zm11.761 0v4.507c0 .242.01.49.028.742.018.253.072.482.163.687.09.206.233.372.429.5.196.129.471.193.826.193s.629-.064.82-.192c.193-.129.336-.295.43-.5.094-.206.15-.435.169-.688.018-.253.027-.5.027-.742V48.88h2.12v4.804c0 1.29-.292 2.232-.875 2.825-.584.594-1.48.89-2.69.89-1.211 0-2.11-.296-2.697-.89-.587-.593-.88-1.535-.88-2.825V48.88h2.13zm13.719 2.77c-.493-.608-1.102-.912-1.827-.912a2.22 2.22 0 0 0-.886.175 2.155 2.155 0 0 0-.7.479c-.196.201-.35.441-.463.72a2.388 2.388 0 0 0-.168.901c0 .33.056.634.168.913a2.19 2.19 0 0 0 1.169 1.21c.268.116.558.175.87.175.68 0 1.293-.293 1.837-.88v2.551l-.218.077a6.25 6.25 0 0 1-.913.258 4.376 4.376 0 0 1-.837.083 4.246 4.246 0 0 1-2.995-1.237 4.541 4.541 0 0 1-.95-1.396 4.3 4.3 0 0 1-.36-1.765c0-.637.118-1.222.354-1.753.235-.532.55-.99.945-1.375a4.32 4.32 0 0 1 3.017-1.225c.326 0 .647.034.962.104.315.07.647.178.995.324v2.573zm4.413 1.374c0 .33.061.634.185.913a2.258 2.258 0 0 0 1.234 1.204c.278.113.574.17.885.17a2.327 2.327 0 0 0 1.625-.649 2.23 2.23 0 0 0 .69-1.638 2.23 2.23 0 0 0-.69-1.638 2.32 2.32 0 0 0-1.625-.648c-.311 0-.607.056-.886.17a2.258 2.258 0 0 0-1.233 1.204 2.23 2.23 0 0 0-.185.912zm-2.228 0c0-.615.112-1.189.336-1.72.225-.532.537-.995.935-1.391a4.266 4.266 0 0 1 1.43-.929 4.855 4.855 0 0 1 1.831-.335c.66 0 1.269.111 1.827.335a4.314 4.314 0 0 1 1.44.929c.402.396.716.86.94 1.39.225.532.337 1.106.337 1.721 0 .616-.112 1.19-.337 1.72a4.254 4.254 0 0 1-.94 1.392 4.314 4.314 0 0 1-1.44.929 4.866 4.866 0 0 1-1.827.335 4.855 4.855 0 0 1-1.831-.335 4.266 4.266 0 0 1-1.43-.93 4.296 4.296 0 0 1-.935-1.39 4.373 4.373 0 0 1-.336-1.72zM44.97 57.17v-8.29h2.13l3.936 5.069V48.88h2.12v8.289h-2.12L47.1 52.101v5.068h-2.13zm15.686-6.464H58.09v1.385h2.338v1.825H58.09v3.254h-2.13v-8.29h4.696v1.826z" fill="#E7E7E7"/><g transform="translate(10.055)" fill="#30D2DE"><ellipse cx="20.382" cy="7.971" rx="8.696" ry="7.971"/><ellipse cx="20.382" cy="33.257" rx="8.696" ry="7.971"/><ellipse cx="7.881" cy="20.614" rx="7.881" ry="8.795"/><ellipse cx="32.882" cy="20.614" rx="7.881" ry="8.795"/><ellipse cx="20.382" cy="20.614" rx="8.968" ry="9.07"/></g></g></svg>