<svg width="192" height="42" viewBox="0 0 192 42" xmlns="http://www.w3.org/2000/svg"><title>sponsor-logo-4</title><g fill="#FEFEFE" fill-rule="evenodd" opacity=".5"><path d="M182.623 38.264a1.114 1.114 0 0 0-1.522.406 1.535 1.535 0 0 1-1.327.767 1.533 1.533 0 0 1-1.53-1.531V35.52a1.532 1.532 0 0 1 2.8-.855 1.111 1.111 0 0 0 1.546.3c.51-.345.644-1.037.3-1.547a3.757 3.757 0 0 0-6.855 1.743c-.01.06-.02.12-.02.183v2.896c0 .133.028.256.07.374a3.763 3.763 0 0 0 3.69 3.05c1.337 0 2.583-.72 3.254-1.878a1.113 1.113 0 0 0-.406-1.522m5.571 1.165c-.018 0-.034.004-.052.005a1.53 1.53 0 0 1-1.479-1.528V35.52a1.533 1.533 0 1 1 3.062 0v2.377a1.533 1.533 0 0 1-1.531 1.531m3.748-4.186c0-.006 0-.012-.002-.018-.004-.037-.005-.075-.012-.111a3.729 3.729 0 0 0-.618-1.695 3.757 3.757 0 0 0-6.856 1.747c-.01.058-.018.117-.018.178v2.896c0 .132.027.257.07.375a3.762 3.762 0 0 0 3.688 3.049c.038 0 .075-.007.112-.011A3.757 3.757 0 0 0 191.31 40c.282-.418.473-.884.57-1.373a1.11 1.11 0 0 0 .072-.388v-2.896c0-.034-.007-.067-.01-.101m-103.957-.249l-.016-.014c-.049.059-.095.12-.146.176l.162-.162zm41.496 1.722a4.755 4.755 0 0 1-4.755-4.755V10.767a6.542 6.542 0 0 0-6.534-6.535c-2.965 0-5.47 1.986-6.267 4.696a6.53 6.53 0 0 1 1.838-.268 6.542 6.542 0 0 1 6.535 6.535v21.193a4.755 4.755 0 0 0 4.755 4.755c1.228 0 2.344-.47 3.188-1.234l.043.04 4.94-4.956-.065-.053c-.872 1.074-2.186 1.775-3.678 1.775M102.147 22.45V10.767a6.542 6.542 0 0 0-6.535-6.535c-2.963 0-5.468 1.986-6.265 4.696a6.53 6.53 0 0 1 1.838-.267 6.541 6.541 0 0 1 6.534 6.534v11.683a4.755 4.755 0 0 0 7.42 3.939l.032.03.214-.215a4.67 4.67 0 0 0 .85-.853l3.61-3.621a4.705 4.705 0 0 1-2.942 1.047 4.755 4.755 0 0 1-4.756-4.755m-22.579 9.51V10.087c0-.236.036-.461.07-.688a15.949 15.949 0 0 1 2.666-7.542c-3.948 2.642-6.67 6.979-7.095 11.97-.033.227-.069.453-.069.688v21.873a4.755 4.755 0 0 0 4.755 4.755 4.73 4.73 0 0 0 3.147-1.197l.003.003.056-.057c.107-.098.21-.201.308-.308l4.115-4.13a4.723 4.723 0 0 1-3.2 1.26 4.755 4.755 0 0 1-4.756-4.754m-8.432-1.068l.02-.025c-.033.041-.07.08-.102.122l.082-.097m-12.649 6.176c-7.812 0-14.33-5.615-15.748-13.02a4.705 4.705 0 0 1-.295-1.598V10.087c0-.267.035-.525.078-.781.314-3.288 1.636-6.28 3.636-8.69L43.819 2.93a16.147 16.147 0 0 0-1.963 1.942l-.009.009a15.988 15.988 0 0 0-3.754 8.852 4.796 4.796 0 0 0-.079.78v12.364c0 .564.116 1.097.296 1.598 1.42 7.405 7.938 13.02 15.75 13.02a16.06 16.06 0 0 0 9.334-3.014l.004.008.086-.072a16.043 16.043 0 0 0 2.203-1.927c1.344-1.222 3.072-2.881 4.61-4.62-3.007 3.262-7.285 5.197-11.81 5.197m12.876-6.481c-.017.022-.032.046-.05.068.017-.022.036-.046.05-.068m.644-23.749l-.018-.008-.028.055.046-.047z"/><path d="M63.91 7.19a6.54 6.54 0 0 0-5.422-2.884c-2.964 0-5.47 1.986-6.266 4.696a6.518 6.518 0 0 1 7.26 2.617 4.747 4.747 0 0 0 3.944 2.093c.916 0 1.842-.264 2.658-.815a4.726 4.726 0 0 0 1.337-1.368l2.864-2.93a4.737 4.737 0 0 1-2.43.685A4.747 4.747 0 0 1 63.91 7.19M20.52 4.232c-2.965 0-5.47 1.986-6.267 4.696a6.495 6.495 0 0 1 1.839-.268 6.542 6.542 0 0 1 6.534 6.535v3.376h4.428v-7.804a6.542 6.542 0 0 0-6.534-6.535m14.95 30.761l-.015-.014c-.05.059-.095.12-.146.176l.162-.162zM4.475 31.96V10.087c0-.236.036-.461.07-.688.28-3.311 1.582-6.329 3.571-8.763L6.12 2.645A16.214 16.214 0 0 0 3.507 5.27l-.008.008H3.5a15.98 15.98 0 0 0-3.384 8.549c-.033.227-.069.453-.069.688v21.873a4.755 4.755 0 0 0 4.755 4.755 4.73 4.73 0 0 0 3.147-1.197l.003.003.056-.056a5.28 5.28 0 0 0 .308-.31l4.116-4.128a4.725 4.725 0 0 1-3.202 1.26 4.755 4.755 0 0 1-4.755-4.755m22.579 0v-3.878H13.985v3.878c0 .188-.034.367-.055.55h8.696v3.878a4.755 4.755 0 0 0 4.755 4.755 4.73 4.73 0 0 0 3.147-1.197l.003.003.056-.057c.107-.098.21-.201.308-.308l4.115-4.13a4.723 4.723 0 0 1-3.2 1.26 4.755 4.755 0 0 1-4.756-4.754m-14.162 3.033l-.017-.014c-.048.059-.094.12-.145.177l.162-.163zm155.616-15.867h-17.823v1.683c0 .981.224 1.91.613 2.745h11.958a4.728 4.728 0 0 1 4.868-1.698l4.042-4.446-.012-.02c-.873 1.052-2.172 1.736-3.645 1.736M162.64 6.977a6.537 6.537 0 0 0-5.42-2.885c-2.969 0-5.453 2-6.246 4.713a6.463 6.463 0 0 1 1.817-.284c1.304 0 2.552.394 3.608 1.095h7.274a6.46 6.46 0 0 0-1.033-2.639"/><path d="M157.22 36.854c-7.622 0-14.007-5.346-15.633-12.482a4.729 4.729 0 0 1-.412-1.922V10.087c0-.188.034-.365.054-.547a15.975 15.975 0 0 1 3.54-8.977l-2.036 2.013a16.055 16.055 0 0 0-5.932 11.392c-.02.182-.055.36-.055.547v12.363c0 .685.152 1.333.413 1.922 1.626 7.136 8.01 12.482 15.632 12.482l.02-.002a16.054 16.054 0 0 0 9.054-2.828l.013.038.374-.314a16.084 16.084 0 0 0 2.262-2.003 63.46 63.46 0 0 0 3.838-3.826c-2.95 2.837-6.925 4.5-11.112 4.505l-.02.002M35.31 35.155l-.3.3a4.7 4.7 0 0 0 .3-.3m-22.58.001l-.298.299a4.67 4.67 0 0 0 .298-.3m75.093 0l-.299.3a4.7 4.7 0 0 0 .3-.3m-16.51-4.501a3.857 3.857 0 0 1-.158.212c.054-.07.105-.141.158-.212m-.26.335c-.245.295-.499.589-.758.882.263-.284.516-.578.758-.882"/></g></svg>