<svg width="222" height="63" viewBox="0 0 222 63" xmlns="http://www.w3.org/2000/svg"><title>sponsor-logo-2</title><path d="M6.986 49.173h-2.58a3.87 3.87 0 0 1-3.87-3.87V18.137a3.87 3.87 0 0 1 3.87-3.87h2.156a3.87 3.87 0 0 1 3.87 3.87v27.59a3.446 3.446 0 0 1-3.446 3.446M61.34 62.629h-2.578a3.87 3.87 0 0 1-3.87-3.87V4.68a3.87 3.87 0 0 1 3.87-3.87h2.155a3.87 3.87 0 0 1 3.87 3.87v54.502a3.446 3.446 0 0 1-3.446 3.446m-36.237.001h-2.58a3.87 3.87 0 0 1-3.87-3.87V4.68a3.87 3.87 0 0 1 3.87-3.87h2.156a3.87 3.87 0 0 1 3.87 3.87v54.502a3.446 3.446 0 0 1-3.446 3.446m54.355-13.455H76.88a3.87 3.87 0 0 1-3.87-3.87V18.137a3.87 3.87 0 0 1 3.87-3.87h2.155a3.87 3.87 0 0 1 3.87 3.87v27.59a3.446 3.446 0 0 1-3.446 3.446m-36.237 1.094h-2.579a3.87 3.87 0 0 1-3.87-3.87V20.004a3.87 3.87 0 0 1 3.87-3.87h2.155a3.87 3.87 0 0 1 3.87 3.87v26.819a3.446 3.446 0 0 1-3.446 3.445m83.295-15.596l-2.039-4.428h-.027l-2.013 4.428h4.08zm-11.03 5.743l8.4-18.061a.546.546 0 0 1 .456-.295h.27c.186 0 .374.134.455.295l8.4 18.06c.161.35-.054.699-.456.699h-2.979c-.483 0-.698-.161-.94-.671l-.966-2.12h-7.299l-.966 2.147c-.134.322-.43.644-.966.644h-2.953c-.402 0-.617-.35-.456-.698zm39.074-18.356c2.684 0 4.67.832 6.495 2.496a.498.498 0 0 1 .026.75l-2.093 2.175a.47.47 0 0 1-.67 0 5.481 5.481 0 0 0-3.624-1.37c-3.032 0-5.26 2.524-5.26 5.53 0 2.978 2.255 5.447 5.287 5.447 1.261 0 2.63-.456 3.596-1.288.188-.161.537-.161.698.027l2.093 2.227c.188.188.161.537-.027.725-1.825 1.77-4.132 2.603-6.52 2.603-5.368 0-9.689-4.267-9.689-9.634a9.667 9.667 0 0 1 9.688-9.688m22.328.429a.512.512 0 0 1 .483-.429h.429c.135 0 .376.107.457.268l6.226 11.593h.053l6.226-11.593c.08-.161.322-.268.457-.268h.429c.215 0 .456.187.483.429l3.033 18.034c.053.349-.188.59-.51.59h-3.167c-.242 0-.483-.214-.51-.429l-1.208-8.292h-.053l-4.51 8.695c-.08.161-.321.295-.455.295h-.483c-.161 0-.376-.134-.456-.295l-4.535-8.695h-.054l-1.181 8.292a.522.522 0 0 1-.51.429h-3.167c-.322 0-.563-.241-.51-.59l3.033-18.034zm32.445.349a.51.51 0 0 1 .51-.51h11.11a.51.51 0 0 1 .51.51v2.925a.51.51 0 0 1-.51.51h-7.434V29.6h6.118c.27 0 .51.24.51.51v2.925a.51.51 0 0 1-.51.51h-6.118v3.623h7.434a.51.51 0 0 1 .51.509v2.926a.51.51 0 0 1-.51.51h-11.11a.51.51 0 0 1-.51-.51V22.837z" fill="#FEFEFE" fill-rule="evenodd" opacity=".5"/></svg>