<?xml version="1.0" encoding="UTF-8"?>
<svg width="61px" height="58px" viewBox="0 0 61 58" version="1.1" xmlns="http://www.w3.org/2000/svg" xmlns:xlink="http://www.w3.org/1999/xlink">
    <!-- Generator: Sketch 49 (51002) - http://www.bohemiancoding.com/sketch -->
    <title>logo-with-text</title>
    <desc>Created with Sketch.</desc>
    <defs></defs>
    <g id="mockup" stroke="none" stroke-width="1" fill="none" fill-rule="evenodd">
        <g id="v2" transform="translate(-160.000000, -6040.000000)">
            <g id="footer" transform="translate(0.000000, 6008.000000)">
                <g id="logo-with-text" transform="translate(160.000000, 32.000000)">
                    <g id="logo">
                        <path d="M2.98930799,48.8795236 L2.98930799,57.1690334 L0.858746659,57.1690334 L0.858746659,48.8795236 L2.98930799,48.8795236 Z M7.92438372,55.344022 L8.41354321,55.344022 C8.78313223,55.344022 9.11285866,55.2853877 9.4027324,55.1681173 C9.69260614,55.0508469 9.93718344,54.8896025 10.1364716,54.6843793 C10.3357598,54.4791561 10.4879413,54.2354572 10.5930205,53.9532753 C10.6980997,53.6710934 10.7506386,53.3614309 10.7506386,53.0242785 C10.7506386,52.6944555 10.696288,52.3866253 10.5875854,52.1007787 C10.4788827,51.8149321 10.3248896,51.5694009 10.1256014,51.3641777 C9.92631323,51.1589545 9.68173593,50.9977102 9.39186219,50.8804398 C9.10198845,50.7631694 8.77588539,50.704535 8.41354321,50.704535 L7.92438372,50.704535 L7.92438372,55.344022 Z M5.79382239,48.8795236 L8.94618355,48.8795236 C9.50419049,48.8795236 10.0277671,48.9931276 10.516929,49.220339 C11.006091,49.4475504 11.4336483,49.7498836 11.7996139,50.1273477 C12.1655795,50.5048118 12.4536372,50.9445692 12.6637957,51.4466331 C12.8739541,51.948697 12.9790318,52.4745735 12.9790318,53.0242785 C12.9790318,53.5666541 12.8757658,54.088866 12.6692308,54.5909299 C12.4626957,55.0929938 12.1764497,55.5345835 11.8104841,55.9157123 C11.4445185,56.2968411 11.0169612,56.6010067 10.5277992,56.828218 C10.0386373,57.0554294 9.51143734,57.1690334 8.94618355,57.1690334 L5.79382239,57.1690334 L5.79382239,48.8795236 Z M17.5553906,48.8795236 L17.5553906,53.387082 C17.5553906,53.6289522 17.564449,53.8763157 17.5825661,54.12918 C17.6006832,54.3820443 17.6550337,54.6110846 17.7456192,54.8163078 C17.8362048,55.021531 17.9793278,55.1882724 18.1749926,55.3165369 C18.3706573,55.4448014 18.6460333,55.5089327 19.0011286,55.5089327 C19.3562239,55.5089327 19.6297882,55.4448014 19.8218295,55.3165369 C20.0138709,55.1882724 20.1569939,55.021531 20.2512029,54.8163078 C20.3454118,54.6110846 20.401574,54.3820443 20.4196911,54.12918 C20.4378082,53.8763157 20.4468666,53.6289522 20.4468666,53.387082 L20.4468666,48.8795236 L22.5665578,48.8795236 L22.5665578,53.6839212 C22.5665578,54.9738956 22.2748767,55.9157094 21.6915058,56.5093907 C21.1081349,57.1030721 20.2113515,57.3999084 19.0011286,57.3999084 C17.7909057,57.3999084 16.8923106,57.1030721 16.3053163,56.5093907 C15.718322,55.9157094 15.4248292,54.9738956 15.4248292,53.6839212 L15.4248292,48.8795236 L17.5553906,48.8795236 Z M31.2735967,51.6500229 C30.7808113,51.0416827 30.1720856,50.7375172 29.4474012,50.7375172 C29.1285401,50.7375172 28.8332357,50.7961515 28.5614791,50.9134219 C28.2897224,51.0306923 28.0560152,51.1901044 27.8603505,51.3916628 C27.6646857,51.5932213 27.5106926,51.8332556 27.3983665,52.1117728 C27.2860404,52.39029 27.2298782,52.6907909 27.2298782,53.0132845 C27.2298782,53.3431075 27.2860404,53.647273 27.3983665,53.9257902 C27.5106926,54.2043074 27.6664974,54.446174 27.8657856,54.6513972 C28.0650738,54.8566204 28.298781,55.0178647 28.5669142,55.1351351 C28.8350474,55.2524055 29.1249168,55.3110399 29.436531,55.3110399 C30.1177343,55.3110399 30.7300834,55.0178683 31.2735967,54.4315163 L31.2735967,56.9821347 L31.0561925,57.059093 C30.7300845,57.1763634 30.4257216,57.2624825 30.1430947,57.317453 C29.8604678,57.3724235 29.5814686,57.3999084 29.3060885,57.3999084 C28.7408347,57.3999084 28.1991413,57.2918014 27.680992,57.0755841 C27.1628427,56.8593668 26.7062984,56.5552012 26.3113454,56.1630783 C25.9163924,55.7709554 25.5993478,55.3055455 25.360202,54.7668346 C25.1210561,54.2281237 25.001485,53.6399482 25.001485,53.0022904 C25.001485,52.3646326 25.1192444,51.7801218 25.3547669,51.2487403 C25.5902893,50.7173588 25.9055222,50.2592781 26.3004752,49.8744847 C26.6954282,49.4896912 27.1537841,49.1891903 27.6755569,48.972973 C28.1973296,48.7567557 28.7444581,48.6486486 29.3169587,48.6486486 C29.6430667,48.6486486 29.9637347,48.6834628 30.2789724,48.7530921 C30.5942101,48.8227214 30.9257482,48.9308284 31.2735967,49.0774164 L31.2735967,51.6500229 Z M35.6869023,53.0242785 C35.6869023,53.3541015 35.7484995,53.658267 35.8716959,53.9367842 C35.9948922,54.2153014 36.1615671,54.457168 36.3717256,54.6623912 C36.581884,54.8676144 36.8264613,55.0270265 37.1054648,55.1406322 C37.3844683,55.2542379 37.6797727,55.3110399 37.991387,55.3110399 C38.3030013,55.3110399 38.5983057,55.2542379 38.8773092,55.1406322 C39.1563127,55.0270265 39.4027016,54.8676144 39.6164835,54.6623912 C39.8302654,54.457168 39.998752,54.2153014 40.1219483,53.9367842 C40.2451447,53.658267 40.3067419,53.3541015 40.3067419,53.0242785 C40.3067419,52.6944555 40.2451447,52.39029 40.1219483,52.1117728 C39.998752,51.8332556 39.8302654,51.591389 39.6164835,51.3861658 C39.4027016,51.1809426 39.1563127,51.0215306 38.8773092,50.9079249 C38.5983057,50.7943192 38.3030013,50.7375172 37.991387,50.7375172 C37.6797727,50.7375172 37.3844683,50.7943192 37.1054648,50.9079249 C36.8264613,51.0215306 36.581884,51.1809426 36.3717256,51.3861658 C36.1615671,51.591389 35.9948922,51.8332556 35.8716959,52.1117728 C35.7484995,52.39029 35.6869023,52.6944555 35.6869023,53.0242785 Z M33.4585091,53.0242785 C33.4585091,52.4086089 33.5708334,51.835092 33.7954856,51.3037105 C34.0201377,50.772329 34.3317473,50.3087514 34.7303237,49.9129638 C35.1289001,49.5171762 35.6053729,49.2075137 36.1597565,48.983967 C36.71414,48.7604203 37.3246774,48.6486486 37.991387,48.6486486 C38.6508497,48.6486486 39.2595755,48.7604203 39.8175824,48.983967 C40.3755894,49.2075137 40.8556855,49.5171762 41.2578854,49.9129638 C41.6600852,50.3087514 41.9735065,50.772329 42.1981586,51.3037105 C42.4228107,51.835092 42.5351351,52.4086089 42.5351351,53.0242785 C42.5351351,53.6399481 42.4228107,54.213465 42.1981586,54.7448465 C41.9735065,55.276228 41.6600852,55.7398056 41.2578854,56.1355932 C40.8556855,56.5313808 40.3755894,56.8410433 39.8175824,57.06459 C39.2595755,57.2881367 38.6508497,57.3999084 37.991387,57.3999084 C37.3246774,57.3999084 36.71414,57.2881367 36.1597565,57.06459 C35.6053729,56.8410433 35.1289001,56.5313808 34.7303237,56.1355932 C34.3317473,55.7398056 34.0201377,55.276228 33.7954856,54.7448465 C33.5708334,54.213465 33.4585091,53.6399481 33.4585091,53.0242785 Z M44.9700624,57.1690334 L44.9700624,48.8795236 L47.1006237,48.8795236 L51.03564,53.9477783 L51.03564,48.8795236 L53.1553312,48.8795236 L53.1553312,57.1690334 L51.03564,57.1690334 L47.1006237,52.1007787 L47.1006237,57.1690334 L44.9700624,57.1690334 Z M60.6557767,50.704535 L58.0904069,50.704535 L58.0904069,52.0897847 L60.4275022,52.0897847 L60.4275022,53.9147962 L58.0904069,53.9147962 L58.0904069,57.1690334 L55.9598456,57.1690334 L55.9598456,48.8795236 L60.6557767,48.8795236 L60.6557767,50.704535 Z" id="word-mark" fill="#E7E7E7"></path>
                        <g id="abstract-mark" transform="translate(10.054945, 0.000000)" fill="#30D2DE">
                            <ellipse id="Oval-2" cx="20.3816454" cy="7.97068255" rx="8.6961687" ry="7.97068255"></ellipse>
                            <ellipse id="Oval-2" cx="20.3816454" cy="33.2569858" rx="8.6961687" ry="7.97068255"></ellipse>
                            <ellipse id="Oval-2" cx="7.88090288" cy="20.6138342" rx="7.88090288" ry="8.79523591"></ellipse>
                            <ellipse id="Oval-2" cx="32.8823879" cy="20.6138342" rx="7.88090288" ry="8.79523591"></ellipse>
                            <ellipse id="Oval" cx="20.3816454" cy="20.6138342" rx="8.96792397" ry="9.07008704"></ellipse>
                        </g>
                    </g>
                </g>
            </g>
        </g>
    </g>
</svg>