<?xml version="1.0" encoding="UTF-8"?>
<svg width="252px" height="67px" viewBox="0 0 252 67" version="1.1" xmlns="http://www.w3.org/2000/svg" xmlns:xlink="http://www.w3.org/1999/xlink">
    <!-- Generator: Sketch 49 (51002) - http://www.bohemiancoding.com/sketch -->
    <title>sponsor-logo-1</title>
    <desc>Created with Sketch.</desc>
    <defs></defs>
    <g id="mockup" stroke="none" stroke-width="1" fill="none" fill-rule="evenodd" opacity="0.5">
        <g id="sponsor-logo-1" fill="#E7E7E7">
            <path d="M29.6308458,35.1988154 L29.6308458,30.5525852 C29.6308458,28.4075556 31.3661692,26.6617176 33.4995025,26.6617176 C35.6338308,26.6617176 37.3691542,28.4075556 37.3691542,30.5525852 L37.3691542,35.1988154 L29.6308458,35.1988154 Z M33.4995025,21 C28.5353234,21 24.4537313,24.8518489 24.040796,29.7381943 C24.0218905,29.8732592 24,30.0073235 24,30.1473907 L24,43.1696414 C24,44.7323915 25.2606965,46 26.8159204,46 C28.3701493,46 29.6308458,44.7323915 29.6308458,43.1696414 L29.6308458,40.8605331 L37.3691542,40.8605331 L37.3691542,43.1696414 C37.3691542,44.7323915 38.6288557,46 40.1840796,46 C41.7393035,46 43,44.7323915 43,43.1696414 L43,30.1473907 C43,30.0073235 42.9781095,29.8732592 42.958209,29.7381943 C42.5452736,24.8518489 38.4646766,21 33.4995025,21 L33.4995025,21 Z" id="Fill-2"></path>
            <path d="M33.5,61.3458946 C18.1452921,61.3458946 5.6541054,48.8547079 5.6541054,33.5 C5.6541054,18.1452921 18.1452921,5.6541054 33.5,5.6541054 C48.8547079,5.6541054 61.3458946,18.1452921 61.3458946,33.5 C61.3458946,48.8547079 48.8547079,61.3458946 33.5,61.3458946 M33.5,0 C15.0279907,0 0,15.0279907 0,33.5 C0,51.9720093 15.0279907,67 33.5,67 C51.9720093,67 67,51.9720093 67,33.5 C67,15.0279907 51.9720093,0 33.5,0" id="Fill-4"></path>
            <path d="M98.6308458,35.1988154 L98.6308458,30.5525852 C98.6308458,28.4075556 100.366169,26.6617176 102.499502,26.6617176 C104.633831,26.6617176 106.369154,28.4075556 106.369154,30.5525852 L106.369154,35.1988154 L98.6308458,35.1988154 Z M102.499502,21 C97.5353234,21 93.4537313,24.8518489 93.040796,29.7381943 C93.0218905,29.8732592 93,30.0073235 93,30.1473907 L93,43.1696414 C93,44.7323915 94.2606965,46 95.8159204,46 C97.3701493,46 98.6308458,44.7323915 98.6308458,43.1696414 L98.6308458,40.8605331 L106.369154,40.8605331 L106.369154,43.1696414 C106.369154,44.7323915 107.628856,46 109.18408,46 C110.739303,46 112,44.7323915 112,43.1696414 L112,30.1473907 C112,30.0073235 111.978109,29.8732592 111.958209,29.7381943 C111.545274,24.8518489 107.464677,21 102.499502,21 L102.499502,21 Z" id="Fill-6"></path>
            <path d="M161.315063,21 C158.659238,21 156.251952,22.060509 154.5,23.7733312 C152.749062,22.060509 150.340762,21 147.684937,21 C142.623855,21 138.463603,24.8508484 138.041592,29.7381943 C138.022318,29.8722587 138,30.0073235 138,30.1473907 L138,43.1686409 C138,44.7323915 139.285306,46 140.870888,46 C142.456471,46 143.740762,44.7323915 143.740762,43.1686409 L143.740762,30.5515848 C143.740762,28.4065551 145.50996,26.6617176 147.684937,26.6617176 C149.860928,26.6617176 151.630126,28.4065551 151.630126,30.5515848 L151.630126,37.5069233 C151.630126,39.0706739 152.914417,40.3382824 154.5,40.3382824 C156.085583,40.3382824 157.370888,39.0706739 157.370888,37.5069233 L157.370888,30.5515848 C157.370888,28.4065551 159.140086,26.6617176 161.315063,26.6617176 C163.49004,26.6617176 165.259238,28.4065551 165.259238,30.5515848 L165.259238,43.1686409 C165.259238,44.7323915 166.544543,46 168.130126,46 C169.715709,46 171,44.7323915 171,43.1686409 L171,30.1473907 C171,30.0073235 170.978697,29.8722587 170.958408,29.7381943 C170.537412,24.8508484 166.37716,21 161.315063,21" id="Fill-8"></path>
            <path d="M132.602083,37.4158782 C131.264657,36.6376719 129.551328,37.0978373 128.777758,38.44156 C128.091239,39.6342132 126.814156,40.375646 125.444086,40.375646 C123.323197,40.375646 121.597997,38.6413294 121.597997,36.5104556 L121.597997,30.4945138 C121.597997,30.492526 121.598987,30.4905383 121.598987,30.4885505 C121.598987,28.3576767 123.324187,26.624354 125.445075,26.624354 C126.725126,26.624354 127.918125,27.2624235 128.636299,28.3298481 C129.177403,29.1348891 130.059787,29.5682198 130.957999,29.5682198 C131.497124,29.5682198 132.042185,29.412181 132.522946,29.0861891 C133.803986,28.2165461 134.140321,26.4683152 133.274753,25.1812435 C131.513941,22.5633696 128.586838,21 125.445075,21 C120.542499,21 116.503513,24.7737537 116.046493,29.5811402 C116.021763,29.7322096 116,29.8842729 116,30.0432933 L116,37.3542578 C116,37.6872068 116.068256,38.0032599 116.174103,38.2994355 C117.009994,42.6784607 120.84619,46 125.444086,46 C128.804467,46 131.939306,44.1831915 133.622958,41.2582094 C134.397518,39.9134929 133.940498,38.1940844 132.602083,37.4158782" id="Fill-10"></path>
            <path d="M228.602083,37.4158782 C227.264657,36.6366781 225.551328,37.0978373 224.777758,38.44156 C224.091239,39.6342132 222.814156,40.375646 221.444086,40.375646 C219.323197,40.375646 217.597997,38.6413294 217.597997,36.5104556 L217.597997,30.4945138 C217.597997,30.492526 217.598987,30.4905383 217.598987,30.4885505 C217.598987,28.3576767 219.324187,26.624354 221.445075,26.624354 C222.725126,26.624354 223.917136,27.2624235 224.636299,28.3298481 C225.177403,29.1348891 226.059787,29.5682198 226.957999,29.5682198 C227.497124,29.5682198 228.042185,29.412181 228.522946,29.0861891 C229.803986,28.2165461 230.140321,26.4683152 229.274753,25.1812435 C227.513941,22.5633696 224.586838,21 221.445075,21 C216.542499,21 212.503513,24.7737537 212.046493,29.5811402 C212.021763,29.7322096 212,29.8842729 212,30.0432933 L212,37.3542578 C212,37.6872068 212.068256,38.0032599 212.174103,38.2994355 C213.009994,42.6784607 216.84619,46 221.444086,46 C224.804467,46 227.939306,44.1831915 229.622958,41.2582094 C230.397518,39.9134929 229.940498,38.1940844 228.602083,37.4158782" id="Fill-12"></path>
            <path d="M242.5,40.3557685 C242.455222,40.3557685 242.413428,40.3667011 242.369645,40.3686889 C240.2969,40.2991174 238.631141,38.5975988 238.631141,36.5114495 L238.631141,30.4895444 C238.631141,28.3586706 240.366555,26.624354 242.5,26.624354 C243.78763,26.624354 244.987692,27.2624235 245.710118,28.330842 C246.141982,28.9679176 246.368859,29.7143198 246.368859,30.4895444 L246.368859,36.4915719 C246.368859,37.2658027 246.141982,38.0122048 245.710118,38.6502743 C244.987692,39.717699 243.78763,40.3557685 242.5,40.3557685 M251.974128,29.785879 C251.973133,29.7709708 251.971143,29.7560627 251.970148,29.7411545 C251.959202,29.6487239 251.957212,29.5523177 251.938305,29.4628687 C251.773122,27.9313032 251.245732,26.4673213 250.376034,25.1822374 C248.605792,22.5633696 245.66136,21 242.5,21 C237.564418,21 233.499529,24.7797169 233.045774,29.5920728 C233.020897,29.7401606 233,29.8882484 233,30.0432933 L233,37.3542578 C233,37.6882007 233.067665,38.0032599 233.175134,38.2994355 C234.014979,42.6784607 237.873887,46 242.5,46 C242.597518,46 242.689065,45.9811163 242.783597,45.9711775 C245.835498,45.8807347 248.658531,44.3382365 250.376034,41.7988789 C251.0905,40.7433808 251.572117,39.5676234 251.814916,38.3332273 C251.92935,38.027113 252,37.7001272 252,37.3542578 L252,30.0432933 C252,29.9548382 251.982089,29.8723463 251.974128,29.785879" id="Fill-14"></path>
            <path d="M187.321393,29.89123 L179.682587,29.89123 C179.971144,28.0436114 181.570149,26.624354 183.500498,26.624354 C184.787065,26.624354 185.987065,27.2624235 186.709453,28.330842 C187.028856,28.80194 187.234826,29.3336646 187.321393,29.89123 M191.375124,25.1812435 C189.60398,22.5633696 186.659701,21 183.500498,21 C178.478607,21 174.366169,24.9138904 174.032836,29.8465055 C174.020896,29.9538443 174,30.0591954 174,30.1695158 L174,37.4814741 C174,37.8859823 174.089552,38.2696191 174.244776,38.6174763 C175.206965,42.8374811 178.987065,46 183.500498,46 C183.504478,46 183.508458,45.9990061 183.512438,45.9990061 C186.887562,45.9940367 190.033831,44.179216 191.726368,41.2582094 C192.505473,39.9144868 192.045771,38.1940844 190.700498,37.4158782 C189.353234,36.6376719 187.631841,37.0968434 186.852736,38.4405661 C186.161194,39.6332194 184.876617,40.3746521 183.500498,40.3746521 C183.498507,40.3746521 183.496517,40.375646 183.494527,40.375646 C181.363184,40.3726644 179.630846,38.6403355 179.630846,36.5114495 L179.630846,35.515584 L190.18408,35.515584 C191.739303,35.515584 193,34.2563409 193,32.7029101 L193,29.4698259 C193,29.0573666 192.906468,28.6697543 192.747264,28.3169277 C192.485572,27.2037847 192.025871,26.1423233 191.375124,25.1812435" id="Fill-16"></path>
        </g>
    </g>
</svg>