<?xml version="1.0" encoding="UTF-8"?>
<svg width="192px" height="42px" viewBox="0 0 192 42" version="1.1" xmlns="http://www.w3.org/2000/svg" xmlns:xlink="http://www.w3.org/1999/xlink">
    <!-- Generator: Sketch 49 (51002) - http://www.bohemiancoding.com/sketch -->
    <title>sponsor-logo-4</title>
    <desc>Created with Sketch.</desc>
    <defs></defs>
    <g id="mockup" stroke="none" stroke-width="1" fill="none" fill-rule="evenodd" opacity="0.5">
        <g id="sponsor-logo-4" transform="translate(0.000000, -2.000000)" fill="#FEFEFE">
            <path d="M182.6225,40.2645 C182.0905,39.9565 181.4085,40.1385 181.1005,40.6705 C180.8275,41.1435 180.3195,41.4365 179.7745,41.4365 C178.9305,41.4365 178.2435,40.7495 178.2435,39.9055 L178.2435,37.5235 L178.2435,37.5205 C178.2435,36.6765 178.9305,35.9905 179.7745,35.9905 C180.2835,35.9905 180.7585,36.2425 181.0445,36.6655 C181.2595,36.9845 181.6105,37.1565 181.9685,37.1565 C182.1825,37.1565 182.3995,37.0945 182.5905,36.9655 C183.1005,36.6205 183.2345,35.9285 182.8905,35.4185 C182.1895,34.3815 181.0245,33.7625 179.7745,33.7625 C177.8235,33.7625 176.2165,35.2575 176.0345,37.1615 C176.0245,37.2215 176.0155,37.2815 176.0155,37.3445 L176.0155,40.2405 C176.0155,40.3725 176.0425,40.4965 176.0855,40.6145 C176.4175,42.3485 177.9445,43.6645 179.7745,43.6645 C181.1115,43.6645 182.3585,42.9445 183.0285,41.7865 C183.3365,41.2535 183.1555,40.5725 182.6225,40.2645" id="Fill-53"></path>
            <path d="M188.1944,41.4288 C188.1764,41.4288 188.1604,41.4328 188.1424,41.4338 C187.3224,41.4068 186.6634,40.7328 186.6634,39.9058 L186.6634,37.5208 C186.6634,36.6768 187.3504,35.9898 188.1944,35.9898 C188.7034,35.9898 189.1784,36.2428 189.4644,36.6658 C189.6354,36.9188 189.7254,37.2138 189.7254,37.5208 L189.7254,39.8978 C189.7254,40.2048 189.6354,40.5008 189.4644,40.7528 C189.1784,41.1758 188.7034,41.4288 188.1944,41.4288 M191.9424,37.2428 C191.9424,37.2368 191.9414,37.2308 191.9404,37.2248 C191.9364,37.1878 191.9354,37.1498 191.9284,37.1138 C191.8634,36.5078 191.6544,35.9278 191.3104,35.4188 C190.6094,34.3818 189.4444,33.7628 188.1944,33.7628 C186.2424,33.7628 184.6334,35.2598 184.4544,37.1658 C184.4444,37.2238 184.4364,37.2828 184.4364,37.3438 L184.4364,40.2398 C184.4364,40.3718 184.4634,40.4968 184.5054,40.6148 C184.8374,42.3488 186.3644,43.6638 188.1944,43.6638 C188.2324,43.6638 188.2694,43.6568 188.3064,43.6528 C189.5144,43.6168 190.6304,43.0058 191.3104,42.0008 C191.5924,41.5828 191.7834,41.1168 191.8794,40.6278 C191.9244,40.5068 191.9524,40.3768 191.9524,40.2398 L191.9524,37.3438 C191.9524,37.3098 191.9454,37.2768 191.9424,37.2428" id="Fill-55"></path>
            <path d="M87.9851,36.993 L87.9691,36.979 C87.9201,37.038 87.8741,37.099 87.8231,37.155 L87.9851,36.993 Z" id="Fill-57"></path>
            <path d="M129.4812,38.7148 C126.8552,38.7148 124.7262,36.5858 124.7262,33.9598 L124.7262,12.7668 C124.7262,9.1638 121.7952,6.2318 118.1922,6.2318 C115.2272,6.2318 112.7222,8.2178 111.9252,10.9278 C112.5092,10.7568 113.1252,10.6598 113.7632,10.6598 C117.3672,10.6598 120.2982,13.5918 120.2982,17.1948 L120.2982,38.3878 C120.2982,41.0138 122.4272,43.1428 125.0532,43.1428 C126.2812,43.1428 127.3972,42.6728 128.2412,41.9088 L128.2842,41.9488 L133.2242,36.9928 L133.1592,36.9398 C132.2872,38.0138 130.9732,38.7148 129.4812,38.7148" id="Fill-59"></path>
            <path d="M102.1475,24.4497 L102.1475,12.7667 C102.1475,9.1637 99.2165,6.2317 95.6125,6.2317 C92.6485,6.2317 90.1435,8.2177 89.3465,10.9277 C89.9305,10.7567 90.5465,10.6607 91.1845,10.6607 C94.7885,10.6607 97.7195,13.5917 97.7195,17.1947 L97.7195,28.8777 C97.7195,31.5037 99.8475,33.6327 102.4745,33.6327 C103.4615,33.6327 104.3775,33.3317 105.1385,32.8167 L105.1705,32.8477 L105.3855,32.6317 C105.7045,32.3847 105.9895,32.0977 106.2355,31.7787 L109.8455,28.1577 C109.0335,28.8037 108.0205,29.2047 106.9025,29.2047 C104.2755,29.2047 102.1475,27.0757 102.1475,24.4497" id="Fill-61"></path>
            <path d="M79.5684,33.9597 L79.5684,12.0867 C79.5684,11.8507 79.6044,11.6257 79.6374,11.3987 C79.8734,8.6217 80.8324,6.0527 82.3044,3.8567 C78.3564,6.4987 75.6334,10.8357 75.2094,15.8267 C75.1764,16.0537 75.1404,16.2797 75.1404,16.5147 L75.1404,38.3877 C75.1404,41.0137 77.2684,43.1427 79.8954,43.1427 C81.1034,43.1427 82.2034,42.6887 83.0424,41.9457 L83.0454,41.9487 L83.1014,41.8917 C83.2084,41.7937 83.3114,41.6907 83.4094,41.5837 L87.5244,37.4547 C86.6784,38.2297 85.5614,38.7147 84.3234,38.7147 C81.6974,38.7147 79.5684,36.5857 79.5684,33.9597" id="Fill-63"></path>
            <path d="M71.1357,32.8925 C71.1437,32.8835 71.1477,32.8755 71.1557,32.8665 C71.1227,32.9085 71.0867,32.9475 71.0537,32.9885 C71.0807,32.9565 71.1087,32.9245 71.1357,32.8925" id="Fill-65"></path>
            <path d="M58.4875,39.0677 C50.6755,39.0677 44.1575,33.4527 42.7385,26.0477 C42.5585,25.5467 42.4435,25.0137 42.4435,24.4497 L42.4435,12.0867 C42.4435,11.8197 42.4795,11.5617 42.5215,11.3057 C42.8355,8.0177 44.1575,5.0257 46.1575,2.6157 L43.8195,4.9307 C43.1105,5.5197 42.4545,6.1717 41.8565,6.8727 L41.8475,6.8817 L41.8475,6.8827 C39.7755,9.3177 38.4145,12.3757 38.0935,15.7337 C38.0515,15.9897 38.0145,16.2477 38.0145,16.5147 L38.0145,28.8777 C38.0145,29.4417 38.1305,29.9747 38.3105,30.4757 C39.7295,37.8807 46.2475,43.4957 54.0595,43.4957 C57.4545,43.4957 60.7085,42.4027 63.3945,40.4817 L63.3975,40.4897 C63.3975,40.4897 63.4295,40.4637 63.4845,40.4177 C64.2735,39.8457 65.0105,39.2017 65.6875,38.4907 C67.0305,37.2687 68.7585,35.6097 70.2965,33.8707 C67.2895,37.1327 63.0115,39.0677 58.4875,39.0677" id="Fill-67"></path>
            <path d="M71.3628,32.5857 C71.3458,32.6077 71.3308,32.6317 71.3138,32.6537 C71.3298,32.6317 71.3488,32.6077 71.3628,32.5857" id="Fill-69"></path>
            <path d="M72.0071,8.8369 L71.9891,8.8289 C71.9791,8.8469 71.9711,8.8659 71.9611,8.8839 L72.0071,8.8369 Z" id="Fill-71"></path>
            <path d="M63.9104,9.1909 C62.6894,7.3849 60.6624,6.3059 58.4884,6.3059 C55.5244,6.3059 53.0184,8.2919 52.2224,11.0019 C52.8054,10.8309 53.4214,10.7349 54.0604,10.7349 C56.2344,10.7349 58.2604,11.8129 59.4824,13.6189 C60.4004,14.9789 61.8994,15.7119 63.4264,15.7119 C64.3424,15.7119 65.2684,15.4479 66.0844,14.8969 C66.6364,14.5239 67.0834,14.0559 67.4214,13.5289 L70.2854,10.5989 C69.5254,11.0529 68.6884,11.2839 67.8544,11.2839 C66.3274,11.2839 64.8284,10.5509 63.9104,9.1909" id="Fill-73"></path>
            <path d="M20.52,6.2321 C17.555,6.2321 15.05,8.2181 14.253,10.9281 C14.837,10.7561 15.453,10.6601 16.092,10.6601 C19.695,10.6601 22.626,13.5921 22.626,17.1951 L22.626,20.5711 L27.054,20.5711 L27.054,12.7671 C27.054,9.1641 24.123,6.2321 20.52,6.2321" id="Fill-75"></path>
            <path d="M35.4709,36.993 L35.4549,36.979 C35.4059,37.038 35.3599,37.099 35.3089,37.155 L35.4709,36.993 Z" id="Fill-79"></path>
            <path d="M4.4753,33.9597 L4.4753,12.0867 C4.4753,11.8507 4.5113,11.6257 4.5443,11.3987 C4.8263,8.0877 6.1283,5.0707 8.1173,2.6357 L6.1193,4.6447 C5.1513,5.4167 4.2753,6.2977 3.5073,7.2697 L3.4993,7.2777 L3.5003,7.2787 C1.6133,9.6737 0.3893,12.6167 0.1163,15.8267 C0.0833,16.0537 0.0473,16.2797 0.0473,16.5147 L0.0473,38.3877 C0.0473,41.0137 2.1753,43.1427 4.8023,43.1427 C6.0103,43.1427 7.1103,42.6887 7.9493,41.9457 L7.9523,41.9487 L8.0083,41.8927 C8.1153,41.7937 8.2183,41.6907 8.3163,41.5837 L12.4323,37.4547 C11.5863,38.2297 10.4683,38.7147 9.2303,38.7147 C6.6043,38.7147 4.4753,36.5857 4.4753,33.9597" id="Fill-81"></path>
            <path d="M27.0542,33.9597 L27.0542,30.0817 L13.9852,30.0817 L13.9852,33.9597 C13.9852,34.1477 13.9512,34.3267 13.9302,34.5097 L22.6262,34.5097 L22.6262,38.3877 C22.6262,41.0137 24.7552,43.1427 27.3812,43.1427 C28.5892,43.1427 29.6892,42.6887 30.5282,41.9457 L30.5312,41.9487 L30.5872,41.8917 C30.6942,41.7937 30.7972,41.6907 30.8952,41.5837 L35.0102,37.4547 C34.1642,38.2297 33.0472,38.7147 31.8092,38.7147 C29.1832,38.7147 27.0542,36.5857 27.0542,33.9597" id="Fill-83"></path>
            <path d="M12.8921,36.993 L12.8751,36.979 C12.8271,37.038 12.7811,37.099 12.7301,37.156 L12.8921,36.993 Z" id="Fill-85"></path>
            <path d="M168.5085,21.1263 L150.6845,21.1263 L150.6845,22.8093 C150.6845,23.7903 150.9085,24.7183 151.2975,25.5543 L163.2565,25.5543 C164.4135,24.0593 166.3255,23.4163 168.1235,23.8563 L172.1655,19.4103 L172.1535,19.3903 C171.2815,20.4423 169.9815,21.1263 168.5085,21.1263" id="Fill-87"></path>
            <path d="M162.6401,8.9774 C161.4201,7.1714 159.3931,6.0924 157.2191,6.0924 C154.2511,6.0924 151.7671,8.0914 150.9741,10.8054 C151.5541,10.6364 152.1571,10.5214 152.7911,10.5214 C154.0951,10.5214 155.3431,10.9154 156.3991,11.6164 L163.6731,11.6164 C163.5271,10.6724 163.1791,9.7744 162.6401,8.9774" id="Fill-89"></path>
            <path d="M157.2192,38.8541 C149.5982,38.8541 143.2132,33.5081 141.5872,26.3721 C141.3262,25.7831 141.1752,25.1351 141.1752,24.4501 L141.1752,12.0871 C141.1752,11.8991 141.2092,11.7221 141.2292,11.5401 C141.4582,8.1501 142.7552,5.0551 144.7682,2.5631 L142.7332,4.5761 C139.3612,7.3071 137.1122,11.3751 136.8012,15.9681 C136.7812,16.1501 136.7462,16.3281 136.7462,16.5151 L136.7462,28.8781 C136.7462,29.5631 136.8982,30.2111 137.1592,30.8001 C138.7852,37.9361 145.1692,43.2821 152.7912,43.2821 C152.7982,43.2821 152.8042,43.2801 152.8112,43.2801 C156.0892,43.2761 159.2362,42.2551 161.8652,40.4521 L161.8782,40.4901 C161.8782,40.4901 162.0142,40.3771 162.2522,40.1761 C163.0642,39.5831 163.8222,38.9131 164.5142,38.1731 C165.6722,37.1071 167.0592,35.7651 168.3522,34.3471 C165.4012,37.1841 161.4272,38.8461 157.2402,38.8521 C157.2332,38.8521 157.2262,38.8541 157.2192,38.8541" id="Fill-91"></path>
            <path d="M35.3091,37.1554 L35.0101,37.4554 C35.1151,37.3594 35.2131,37.2604 35.3091,37.1554" id="Fill-93"></path>
            <path d="M12.73,37.1556 L12.432,37.4546 C12.536,37.3596 12.635,37.2596 12.73,37.1556" id="Fill-95"></path>
            <path d="M87.8232,37.1554 L87.5242,37.4554 C87.6292,37.3594 87.7272,37.2604 87.8232,37.1554" id="Fill-97"></path>
            <path d="M71.3137,32.6539 C71.2657,32.7219 71.2157,32.7919 71.1557,32.8659 C71.2097,32.7969 71.2607,32.7249 71.3137,32.6539" id="Fill-99"></path>
            <path d="M71.054,32.9887 C70.809,33.2837 70.555,33.5777 70.296,33.8707 C70.559,33.5867 70.812,33.2927 71.054,32.9887" id="Fill-101"></path>
        </g>
    </g>
</svg>