<svg width="252" height="67" viewBox="0 0 252 67" xmlns="http://www.w3.org/2000/svg"><title>sponsor-logo-1</title><g fill="#E7E7E7" fill-rule="evenodd" opacity=".5"><path d="M29.63 35.199v-4.646c0-2.145 1.736-3.891 3.87-3.891 2.134 0 3.87 1.746 3.87 3.89V35.2h-7.74zM33.5 21c-4.965 0-9.046 3.852-9.46 8.738-.018.135-.04.27-.04.41V43.17c0 1.562 1.26 2.83 2.816 2.83a2.823 2.823 0 0 0 2.815-2.83v-2.31h7.738v2.31c0 1.562 1.26 2.83 2.815 2.83A2.823 2.823 0 0 0 43 43.17V30.147c0-.14-.022-.274-.042-.409C42.545 24.852 38.465 21 33.5 21z"/><path d="M33.5 61.346c-15.355 0-27.846-12.491-27.846-27.846S18.145 5.654 33.5 5.654 61.346 18.145 61.346 33.5 48.855 61.346 33.5 61.346M33.5 0C15.028 0 0 15.028 0 33.5S15.028 67 33.5 67 67 51.972 67 33.5 51.972 0 33.5 0m65.13 35.199v-4.646c0-2.145 1.736-3.891 3.87-3.891 2.134 0 3.87 1.746 3.87 3.89V35.2h-7.74zM102.5 21c-4.965 0-9.046 3.852-9.46 8.738-.018.135-.04.27-.04.41V43.17c0 1.562 1.26 2.83 2.816 2.83a2.823 2.823 0 0 0 2.815-2.83v-2.31h7.738v2.31c0 1.562 1.26 2.83 2.815 2.83A2.823 2.823 0 0 0 112 43.17V30.147c0-.14-.022-.274-.042-.409-.413-4.886-4.493-8.738-9.458-8.738zm58.815 0a9.722 9.722 0 0 0-6.815 2.773A9.72 9.72 0 0 0 147.685 21c-5.061 0-9.221 3.85-9.643 8.738-.02.134-.042.27-.042.41v13.02c0 1.564 1.285 2.832 2.87 2.832 1.586 0 2.87-1.268 2.87-2.831V30.552c0-2.145 1.77-3.89 3.945-3.89 2.176 0 3.945 1.745 3.945 3.89v6.955c0 1.564 1.284 2.831 2.87 2.831s2.87-1.267 2.87-2.831v-6.955c0-2.145 1.77-3.89 3.945-3.89s3.944 1.745 3.944 3.89v12.617c0 1.563 1.286 2.831 2.871 2.831 1.586 0 2.87-1.268 2.87-2.831V30.147c0-.14-.021-.275-.042-.409-.42-4.887-4.58-8.738-9.643-8.738m-28.713 16.416a2.792 2.792 0 0 0-3.824 1.026 3.86 3.86 0 0 1-3.334 1.934c-2.12 0-3.846-1.735-3.846-3.866v-6.015l.001-.006c0-2.131 1.725-3.865 3.846-3.865 1.28 0 2.473.638 3.191 1.706a2.791 2.791 0 0 0 3.887.756 2.82 2.82 0 0 0 .752-3.905 9.428 9.428 0 0 0-7.83-4.181c-4.903 0-8.941 3.774-9.399 8.581a2.836 2.836 0 0 0-.046.462v7.311c0 .333.068.65.174.945.836 4.38 4.672 7.701 9.27 7.701a9.469 9.469 0 0 0 8.179-4.742 2.819 2.819 0 0 0-1.02-3.842m95.999 0a2.791 2.791 0 0 0-3.824 1.026 3.86 3.86 0 0 1-3.334 1.934c-2.12 0-3.846-1.735-3.846-3.866v-6.015l.001-.006c0-2.131 1.725-3.865 3.846-3.865 1.28 0 2.472.638 3.191 1.706a2.791 2.791 0 0 0 3.887.756 2.82 2.82 0 0 0 .752-3.905 9.428 9.428 0 0 0-7.83-4.181c-4.903 0-8.941 3.774-9.399 8.581a2.836 2.836 0 0 0-.046.462v7.311c0 .333.068.65.174.945.836 4.38 4.672 7.701 9.27 7.701a9.469 9.469 0 0 0 8.179-4.742 2.819 2.819 0 0 0-1.02-3.842m13.897 2.94c-.045 0-.087.01-.13.013a3.868 3.868 0 0 1-3.739-3.858V30.49a3.872 3.872 0 0 1 7.08-2.16 3.83 3.83 0 0 1 .658 2.16v6.002c0 .774-.227 1.52-.659 2.158a3.873 3.873 0 0 1-3.21 1.706m9.474-10.57c0-.015-.003-.03-.004-.045-.01-.092-.013-.189-.032-.278a9.414 9.414 0 0 0-1.562-4.28A9.495 9.495 0 0 0 242.5 21c-4.936 0-9 3.78-9.454 8.592a2.699 2.699 0 0 0-.046.451v7.311c0 .334.068.65.175.945.84 4.38 4.699 7.701 9.325 7.701.098 0 .19-.019.284-.029a9.494 9.494 0 0 0 7.592-4.172 9.403 9.403 0 0 0 1.439-3.466c.114-.306.185-.633.185-.979v-7.31c0-.09-.018-.172-.026-.258m-64.653.105h-7.638a3.869 3.869 0 0 1 3.817-3.267 3.87 3.87 0 0 1 3.821 3.267m4.054-4.71A9.498 9.498 0 0 0 183.5 21c-5.021 0-9.134 3.914-9.467 8.847-.012.107-.033.212-.033.323v7.311c0 .405.09.789.245 1.136.962 4.22 4.742 7.383 9.255 7.383l.012-.001a9.537 9.537 0 0 0 8.214-4.74 2.81 2.81 0 0 0-1.026-3.843 2.818 2.818 0 0 0-3.847 1.025 3.889 3.889 0 0 1-3.353 1.934h-.005a3.87 3.87 0 0 1-3.864-3.864v-.995h10.553A2.814 2.814 0 0 0 193 32.703V29.47c0-.413-.094-.8-.253-1.153a9.434 9.434 0 0 0-1.372-3.136"/></g></svg>